<svg xmlns="http://www.w3.org/2000/svg" width="15" height="10" fill="none" viewBox="0 0 15 10"><path fill="#FEFEFE" d="M7.54718 9.26404C6.0757 9.26404 4.60319 9.26612 3.13171 9.263C2.27898 9.26092 1.88589 8.87719 1.88381 8.0359C1.88069 6.01015 1.88069 3.98439 1.88381 1.95864C1.88485 1.14334 2.28106 0.738818 3.08595 0.737779C6.02995 0.734659 8.97291 0.733619 11.9169 0.737779C12.7031 0.738818 13.1097 1.13918 13.1118 1.91288C13.117 3.97295 13.117 6.03406 13.1118 8.09413C13.1097 8.86367 12.6989 9.25988 11.9096 9.26196C10.4558 9.26716 9.00098 9.26404 7.54718 9.26404ZM7.49727 7.49618C8.50286 7.49618 9.50742 7.48995 10.513 7.49931C10.9352 7.50347 11.2482 7.38075 11.2347 6.90031C11.2222 6.44795 10.9092 6.34916 10.5151 6.35019C8.50495 6.35539 6.49375 6.35643 4.4836 6.35019C4.06139 6.34916 3.74838 6.46875 3.7619 6.94919C3.77437 7.40155 4.08739 7.50243 4.48151 7.49931C5.48607 7.49099 6.49167 7.49618 7.49727 7.49618ZM6.14538 3.56946C6.15786 3.07031 5.74709 2.63042 5.24793 2.60858C4.73005 2.58675 4.27457 3.02455 4.27457 3.54555C4.27457 4.04471 4.69886 4.47315 5.19802 4.47939C5.69822 4.48563 6.1329 4.06862 6.14538 3.56946ZM9.7986 2.60962C9.29944 2.60235 8.8658 3.01935 8.85124 3.51955C8.83668 4.01767 9.24952 4.45963 9.74764 4.47939C10.2666 4.50123 10.7231 4.06238 10.721 3.54451C10.72 3.04431 10.2978 2.61586 9.7986 2.60962Z"/><path fill="#FDFDFE" d="M1.23178 3.06198C1.23178 4.45547 1.23178 5.85104 1.23178 7.24348C0.520477 7.30692 0.0421155 6.93879 0.0192373 6.2774C-0.00676052 5.53387 -0.00571845 4.7872 0.0181996 4.04366C0.0389979 3.38228 0.504878 3.01623 1.23178 3.06198Z"/><path fill="#FDFDFE" d="M13.7607 7.25596C13.7607 5.83544 13.7607 4.45547 13.7607 3.07759C14.4408 3.00063 14.9431 3.35004 14.9732 3.97503C15.0107 4.75289 15.0065 5.53386 14.9753 6.31276C14.9503 6.94191 14.4865 7.2882 13.7607 7.25596Z"/></svg>