<svg xmlns="http://www.w3.org/2000/svg" width="15" height="16" fill="none" viewBox="0 0 15 16"><path fill="#FEFEFE" d="M7.20295 14.1942C6.85343 14.2009 6.51106 14.1404 6.16616 14.0948C5.55156 14.0135 4.96048 13.8459 4.37697 13.6468C3.87391 13.4752 3.3866 13.266 2.92533 12.9996C2.80876 12.9324 2.69701 12.8568 2.5672 12.7751C2.76822 13.1887 3.63803 13.9203 4.7454 14.253C4.73594 14.2744 4.73069 14.2979 4.71725 14.3147C4.46099 14.6353 4.20536 14.9566 3.94407 15.2732C3.91655 15.3064 3.85227 15.3291 3.80774 15.3253C3.31287 15.2826 2.81905 15.2287 2.34455 15.0711C1.85514 14.9085 1.38653 14.7004 0.976304 14.3826C0.767517 14.2208 0.566711 14.0467 0.375988 13.864C0.248489 13.7419 0.144515 13.5953 0.03214 13.458C0.0153362 13.4374 -0.000207943 13.4078 2.10471e-06 13.3823C0.00168248 13.1185 0.00231258 12.8547 0.0117647 12.5911C0.0189063 12.393 0.0369707 12.1954 0.0527242 11.9977C0.065117 11.8439 0.075199 11.6896 0.097044 11.5369C0.144095 11.2071 0.191145 10.8771 0.250799 10.5494C0.375987 9.86089 0.536044 9.1795 0.761005 8.5168C0.963701 7.91963 1.18782 7.32919 1.41698 6.74147C1.52348 6.46883 1.64846 6.20018 1.79696 5.94834C1.86628 5.83071 2.00344 5.74606 2.12274 5.66561C2.79069 5.21485 3.51368 4.88276 4.29589 4.68364C4.37004 4.66473 4.44503 4.6494 4.52023 4.63533C4.57904 4.62441 4.5992 4.59269 4.59899 4.53325C4.5971 4.08164 4.59941 3.63004 4.59563 3.17844C4.59521 3.14021 4.57043 3.08938 4.54018 3.06585C3.90857 2.57392 3.27464 2.08514 2.64135 1.5951C2.60375 1.5659 2.56951 1.5323 2.51574 1.48462C2.56804 1.48462 2.60081 1.48462 2.63379 1.48462C3.24986 1.48462 3.86614 1.48273 4.48221 1.48672C4.57358 1.48735 4.60172 1.46445 4.60046 1.37035C4.59521 0.960757 4.59815 0.551165 4.59815 0.141572C4.59815 0.103973 4.59815 0.066375 4.59815 0C5.42721 0.637494 6.23568 1.25902 7.04416 1.88077C7.04311 1.88875 7.04227 1.89694 7.04122 1.90492C7.00593 1.90492 6.97085 1.90492 6.93556 1.90492C6.33335 1.90492 5.73136 1.9066 5.12915 1.90303C5.04303 1.90261 5.01594 1.9253 5.01636 2.01394C5.01951 2.82262 5.02014 3.6313 5.01594 4.43998C5.01552 4.53787 5.04913 4.56349 5.13672 4.55215C5.20897 4.5427 5.28207 4.53871 5.35453 4.53051C5.46145 4.51833 5.51648 4.57315 5.5461 4.68532C4.39147 5.03589 3.29334 5.50135 2.33573 6.2466C5.69313 4.69078 9.0457 4.62252 12.413 6.24576C12.3409 6.18821 12.272 6.12604 12.1964 6.07373C11.6694 5.7093 11.1134 5.39675 10.5181 5.15877C10.1718 5.02035 9.82077 4.89348 9.4702 4.76556C9.38787 4.73552 9.37694 4.71704 9.43156 4.63701C9.50087 4.53556 9.5851 4.52169 9.69096 4.53009C10.2476 4.5742 10.7904 4.6828 11.3151 4.87562C11.8811 5.08357 12.4092 5.36272 12.9114 5.69796C13.1087 5.82966 13.2361 5.99623 13.3233 6.20606C13.5269 6.69547 13.7455 7.17921 13.9285 7.67598C14.1076 8.16266 14.265 8.65879 14.4044 9.15828C14.5342 9.62312 14.6365 10.0964 14.734 10.5692C14.7955 10.8679 14.8346 11.1718 14.8686 11.4751C14.9123 11.8652 14.9438 12.2567 14.9743 12.648C14.9892 12.8389 14.9833 13.0318 14.9987 13.2227C15.0079 13.3401 14.9688 13.4334 14.9006 13.5205C14.5458 13.9734 14.1192 14.342 13.6214 14.6313C13.053 14.9617 12.4394 15.1585 11.7942 15.261C11.5818 15.2948 11.3663 15.3116 11.1514 15.3236C11.1029 15.3263 11.038 15.2881 11.0036 15.2488C10.8611 15.0869 10.7269 14.9178 10.5908 14.7504C10.4705 14.6023 10.3518 14.4532 10.2171 14.2858C11.1082 14.0118 11.8895 13.5836 12.4728 12.8532C12.4672 12.8431 12.4617 12.8331 12.456 12.823C12.3945 12.8555 12.3304 12.8843 12.2718 12.9215C11.8038 13.22 11.2943 13.43 10.7788 13.6275C10.3192 13.8035 9.84934 13.9472 9.36497 14.0339C9.03772 14.0925 8.70647 14.1305 8.37628 14.1709C8.23849 14.1877 8.09839 14.1864 7.95933 14.1933C7.70665 14.1942 7.4548 14.1942 7.20295 14.1942ZM3.7775 10.7756C3.76489 11.0191 3.84303 11.2728 3.98124 11.5091C4.19654 11.8769 4.51855 12.1139 4.93633 12.1702C5.31526 12.2212 5.66456 12.0922 5.94309 11.8259C6.29597 11.4883 6.44111 11.0554 6.39385 10.5795C6.3489 10.1264 6.13339 9.74683 5.73304 9.50507C5.19469 9.17992 4.58492 9.28599 4.16882 9.72373C3.90248 10.0037 3.77309 10.3505 3.7775 10.7756ZM11.0865 10.7777C11.0865 10.7147 11.0939 10.6509 11.0853 10.5889C11.0306 10.1915 10.8693 9.8485 10.5513 9.59392C10.2865 9.38198 9.97726 9.28032 9.64223 9.32695C8.89489 9.43113 8.4708 10.0634 8.46786 10.7399C8.46576 11.1983 8.63548 11.5999 9.0081 11.8906C9.31687 12.1315 9.65862 12.2304 10.0552 12.1422C10.6599 12.008 11.0911 11.38 11.0865 10.7777ZM4.10076 7.56591C4.05434 7.66547 4.0138 7.7581 3.9678 7.8478C3.93482 7.91249 3.94869 7.94064 4.01716 7.97214C4.58744 8.23533 5.1552 8.50419 5.72422 8.77011C5.93216 8.86737 6.14158 8.96126 6.35646 9.05956C6.40183 8.96084 6.44321 8.86506 6.48984 8.77179C6.5203 8.71109 6.50623 8.68399 6.443 8.6548C5.96157 8.43215 5.48266 8.20362 5.00207 7.97929C4.70528 7.84065 4.40638 7.70601 4.10076 7.56591ZM8.49201 9.05851C8.61027 9.00474 8.72475 8.95454 8.83796 8.90118C9.50087 8.58821 10.1632 8.27377 10.8269 7.9629C10.8792 7.93832 10.887 7.91354 10.8656 7.86733C10.8319 7.79444 10.7967 7.72219 10.7668 7.64783C10.7397 7.57998 10.7028 7.56738 10.6374 7.60183C10.5511 7.64741 10.4602 7.68396 10.3719 7.72576C9.71239 8.03747 9.05326 8.35023 8.39266 8.66026C8.34414 8.68294 8.32503 8.70416 8.34855 8.75373C8.39581 8.85413 8.44307 8.95496 8.49201 9.05851ZM3.75166 1.90513C4.04006 2.12778 4.3064 2.33321 4.5971 2.55733C4.5971 2.33426 4.59983 2.14669 4.59311 1.95974C4.59248 1.94063 4.53682 1.90807 4.50615 1.90744C4.26544 1.90324 4.02472 1.90513 3.75166 1.90513ZM5.76266 1.48504C5.76665 1.47411 5.77064 1.46319 5.77463 1.45206C5.53139 1.26533 5.28816 1.0788 5.04493 0.892072C5.0361 0.897953 5.02728 0.903624 5.01846 0.909506C5.01846 1.08279 5.01636 1.25608 5.0214 1.42937C5.02203 1.44849 5.06362 1.48105 5.08756 1.48231C5.19196 1.48819 5.29698 1.48504 5.4018 1.48504C5.52215 1.48504 5.6423 1.48504 5.76266 1.48504Z"/><path fill="#DFDEDC" d="M7.20295 14.1942C7.4548 14.1942 7.70665 14.1942 7.9587 14.1942C7.93665 14.2013 7.91459 14.2143 7.89254 14.2145C7.6848 14.216 7.47685 14.216 7.26912 14.2145C7.24685 14.2143 7.22501 14.2013 7.20295 14.1942Z"/></svg>