<svg width="376" height="312" viewBox="0 0 376 312" fill="none" xmlns="http://www.w3.org/2000/svg">
	<g clip-path="url(#clip0)">
		<path d="M273.26 192.777C275.238 194.475 291.647 207.973 311.189 203.285C328.917 199.001 336.998 182.754 337.575 181.461C350.851 153.494 320.177 128.599 331.803 103.057C335.102 95.7824 343.1 85.7596 365.61 78.8083" stroke="#FEFEFE" stroke-width="12" stroke-miterlimit="10" stroke-linecap="round" />
		<path d="M89.3825 95.7824C78.1685 64.9866 74.3755 42.9202 72.8913 30.3109C72.479 26.8353 72.1492 22.9555 74.5404 20.6114C82.8685 12.3669 115.191 30.6342 142.154 48.0933C148.339 44.941 158.893 40.4954 172.663 39.2021C185.361 37.9897 195.833 39.9296 202.347 41.627C221.147 23.9254 238.463 12.5285 250.997 5.25392C259.16 0.565833 262.705 -0.889089 265.839 0.404175C277.382 5.09226 272.93 42.0311 266.663 74.7669C269.219 78 301.542 120.193 283.979 170.953C270.539 209.751 234.588 234.323 197.4 238.85C151.389 244.427 104.554 219.047 86.9088 177.42C70.6649 139.188 86.0018 103.219 89.3825 95.7824Z" fill="#FEFEFE" />
		<path d="M256.605 12.3192C259.334 10.5389 262.939 12.5048 262.834 15.7163L261.375 60.6632C261.255 64.3483 256.337 66.1152 253.682 63.5428C249.261 59.259 243.355 54.2697 237.432 51.4635C231.628 48.714 224.751 46.6694 219.249 45.2996C215.714 44.4194 214.785 39.6049 217.844 37.6088L256.605 12.3192Z" fill="#66ADEF" />
		<path d="M82.7511 34.8447C82.2291 31.8061 85.2832 29.3841 88.2056 30.519L127.318 45.7077C130.821 47.068 130.802 52.2179 127.391 53.762C121.817 56.2859 115.085 59.8581 110.257 64.1172C105.535 68.2827 101.012 73.5788 97.5981 77.9389C95.3599 80.7978 90.4579 79.7111 89.8457 76.147L82.7511 34.8447Z" fill="#66ADEF" />
		<path d="M229.558 145.088C233.681 141.613 242.751 133.853 244.4 121.648C245.802 111.706 241.432 103.623 240.277 101.441C227.002 76.626 175.302 64.7442 137.207 82.0416C131.353 84.7089 103.565 97.3183 101.751 119.223C100.844 130.054 106.616 138.541 108.347 141.047C130.693 173.055 201.11 169.337 229.558 145.088Z" fill="#2B3959" />
		<path d="M122.447 126.081C124.492 125.949 126.041 124.218 125.906 122.213C125.772 120.209 124.005 118.69 121.96 118.822C119.915 118.954 118.367 120.686 118.501 122.69C118.635 124.695 120.402 126.213 122.447 126.081Z" fill="#2CA0F6" />
		<path d="M129.523 116.617C131.568 116.485 133.116 114.753 132.982 112.749C132.847 110.744 131.081 109.226 129.036 109.358C126.991 109.49 125.442 111.221 125.577 113.226C125.711 115.23 127.478 116.749 129.523 116.617Z" fill="#2CA0F6" />
		<path d="M139.417 116.617C141.462 116.485 143.011 114.753 142.876 112.749C142.742 110.744 140.975 109.226 138.931 109.358C136.886 109.49 135.337 111.221 135.471 113.226C135.606 115.23 137.372 116.749 139.417 116.617Z" fill="#2CA0F6" />
		<path d="M147.13 124.491C149.175 124.359 150.724 122.627 150.59 120.623C150.455 118.618 148.689 117.1 146.644 117.232C144.599 117.363 143.05 119.095 143.185 121.1C143.319 123.104 145.086 124.622 147.13 124.491Z" fill="#2CA0F6" />
		<path d="M196.086 122.275C198.13 122.143 199.679 120.411 199.545 118.406C199.41 116.402 197.644 114.884 195.599 115.016C193.554 115.147 192.005 116.879 192.14 118.884C192.274 120.888 194.041 122.406 196.086 122.275Z" fill="#2CA0F6" />
		<path d="M203.733 113.384C205.778 113.252 207.327 111.52 207.192 109.516C207.058 107.511 205.291 105.993 203.246 106.125C201.202 106.256 199.653 107.988 199.787 109.993C199.922 111.997 201.688 113.515 203.733 113.384Z" fill="#2CA0F6" />
		<path d="M213.056 112.81C215.101 112.678 216.649 110.946 216.515 108.942C216.381 106.937 214.614 105.419 212.569 105.551C210.524 105.683 208.976 107.415 209.11 109.419C209.244 111.424 211.011 112.942 213.056 112.81Z" fill="#2CA0F6" />
		<path d="M220.769 120.684C222.814 120.552 224.363 118.82 224.228 116.816C224.094 114.811 222.327 113.293 220.282 113.425C218.238 113.557 216.689 115.289 216.823 117.293C216.958 119.298 218.724 120.816 220.769 120.684Z" fill="#2CA0F6" />
		<path d="M262.815 248.821C262.645 249.74 260.5 262.498 272.58 262.163C273.424 262.139 274.226 262.575 274.672 263.287C277.957 268.537 282.758 268.68 283.579 268.664C283.663 268.663 283.739 268.662 283.823 268.663C284.64 268.666 289.385 268.475 292.677 263.721C293.045 263.19 293.636 262.822 294.287 262.746C308.126 261.119 305.127 250.94 303.619 247.407C303.312 246.686 303.379 245.852 303.809 245.201C309.825 236.075 301.212 231.994 298.805 230.522C298.642 230.423 298.469 230.339 298.288 230.279C292.353 228.314 291.067 225.82 286.59 224.753C286.454 224.72 286.311 224.703 286.171 224.702C274.005 224.611 266.256 232.951 265.567 234.362C262.946 238.438 263.49 242.374 263.822 243.815C263.91 244.196 263.926 244.592 263.827 244.969L262.839 248.714C262.83 248.75 262.822 248.783 262.815 248.821Z" fill="#FEFEFE" />
		<path d="M40.887 151.783C40.887 151.783 25.9847 155.32 26.8607 141.41C19.55 138.228 19.7356 132.173 19.7356 132.173C19.7356 132.173 19.1717 126.365 25.2566 122.594C25.9769 105.329 40.7644 111.774 41.7611 112.264C51.8524 104.315 56.6466 114.046 58.1378 116.007C59.675 120.034 61.4016 122.431 62.7495 124.547C64.0235 126.548 64.58 128.912 64.375 131.279C63.5072 141.3 56.7268 147.83 55.4559 148.492C50.3703 151.935 45.3003 150.468 45.3003 150.468L40.887 151.783Z" fill="#FEFEFE" />
		<ellipse rx="4.76378" ry="5.9441" transform="matrix(0.199614 -0.979875 0.981899 0.189405 29.6432 131.803)" fill="#2CA0F6" />
		<ellipse rx="4.80431" ry="5.89449" transform="matrix(0.686475 -0.727153 0.738672 0.674064 35.237 120.959)" fill="#2CA0F6" />
		<ellipse rx="4.75598" ry="5.95355" transform="matrix(-0.218529 -0.97583 0.9765 -0.215519 36.0743 143.403)" fill="#2CA0F6" />
		<ellipse rx="4.825" ry="5.86882" transform="matrix(0.862515 -0.506031 0.516812 0.856099 48.8176 119.183)" fill="#2CA0F6" />
		<path d="M41.8037 135.857C39.7679 132.349 42.0764 127.659 46.1629 127.171C46.4089 127.142 46.6538 127.111 46.8979 127.079C51.4032 126.494 55.0178 131.312 52.9438 135.318C52.7832 135.628 52.6242 135.938 52.4667 136.25C50.4214 140.293 44.3171 140.288 42.1006 136.375C42.0026 136.202 41.9037 136.029 41.8037 135.857Z" fill="#2CA0F6" />
		<path d="M40.887 151.783C40.887 151.783 25.9847 155.32 26.8607 141.41C19.55 138.228 19.7356 132.173 19.7356 132.173C19.7356 132.173 19.1717 126.365 25.2566 122.594C25.9769 105.329 40.7644 111.774 41.7611 112.264C51.8524 104.315 56.6466 114.046 58.1378 116.007C59.675 120.034 61.4016 122.431 62.7495 124.547C64.0235 126.548 64.58 128.912 64.375 131.279C63.5072 141.3 56.7268 147.83 55.4559 148.492C50.3703 151.935 45.3003 150.468 45.3003 150.468L40.887 151.783Z" fill="#FEFEFE" />
		<ellipse rx="4.76378" ry="5.9441" transform="matrix(0.199614 -0.979875 0.981899 0.189405 29.6432 131.803)" fill="#2CA0F6" />
		<ellipse rx="4.80431" ry="5.89449" transform="matrix(0.686475 -0.727153 0.738672 0.674064 35.237 120.959)" fill="#2CA0F6" />
		<ellipse rx="4.75598" ry="5.95355" transform="matrix(-0.218529 -0.97583 0.9765 -0.215519 36.0743 143.403)" fill="#2CA0F6" />
		<ellipse rx="4.825" ry="5.86882" transform="matrix(0.862515 -0.506031 0.516812 0.856099 48.8176 119.183)" fill="#2CA0F6" />
		<path d="M41.8037 135.857C39.7679 132.349 42.0764 127.659 46.1629 127.171C46.4089 127.142 46.6538 127.111 46.8979 127.079C51.4032 126.494 55.0178 131.312 52.9438 135.318C52.7832 135.628 52.6242 135.938 52.4667 136.25C50.4214 140.293 44.3171 140.288 42.1006 136.375C42.0026 136.202 41.9037 136.029 41.8037 135.857Z" fill="#2CA0F6" />
		<ellipse cx="176.868" cy="293.409" rx="72.1491" ry="14.5492" fill="#1D222E" fill-opacity="0.83" />
		<path fill-rule="evenodd" clip-rule="evenodd" d="M179.754 231.979C234.857 231.979 279.526 188.191 279.526 134.176C279.526 113.373 272.9 94.0862 261.604 78.2341C275.605 94.7555 284.024 115.985 284.024 139.142C284.024 191.818 240.462 234.52 186.725 234.52C173.994 234.52 161.833 232.123 150.688 227.764C159.884 230.505 169.644 231.979 179.754 231.979Z" fill="#B9CBE0" />
	</g>
	<defs>
		<clipPath id="clip0">
			<rect width="376" height="312" fill="white" />
		</clipPath>
	</defs>
</svg>
