<svg width="419" height="384" viewBox="0 0 419 384" fill="none" xmlns="http://www.w3.org/2000/svg">
<path d="M214.519 384C261.739 384 300.019 376.296 300.019 366.793C300.019 357.289 261.739 349.585 214.519 349.585C167.299 349.585 129.019 357.289 129.019 366.793C129.019 376.296 167.299 384 214.519 384Z" fill="#1D222E" fill-opacity="0.8"/>
<path d="M381.246 213.363L389.399 215.619L395.187 219.35V201.003L381.246 213.363Z" fill="#FEFEFE"/>
<path d="M268.442 258.95C265.153 259.35 262.81 262.341 263.211 265.63C263.611 268.92 266.602 271.262 269.891 270.862L268.442 258.95ZM304.111 260.656L303.387 254.7L303.387 254.7L304.111 260.656ZM326.739 269.01L322.318 273.066L322.318 273.066L326.739 269.01ZM328.862 271.324L333.283 267.268L333.283 267.268L328.862 271.324ZM376.418 252.296L382.074 254.298L382.074 254.298L376.418 252.296ZM389.399 215.619L392.649 210.576C392.139 210.248 391.583 209.998 390.999 209.837L389.399 215.619ZM381.246 213.363L377.265 208.874L369.001 216.201L379.645 219.146L381.246 213.363ZM395.187 201.003H401.187V187.664L391.207 196.513L395.187 201.003ZM395.187 219.35L391.937 224.393L401.187 230.354V219.35H395.187ZM361.315 273.012L357.679 268.24C357.562 268.329 357.449 268.422 357.339 268.519L361.315 273.012ZM269.891 270.862L304.836 266.612L303.387 254.7L268.442 258.95L269.891 270.862ZM322.318 273.066L324.441 275.381L333.283 267.268L331.16 264.953L322.318 273.066ZM382.074 254.298L395.055 217.621L383.743 213.618L370.762 250.294L382.074 254.298ZM390.999 209.837L382.846 207.581L379.645 219.146L387.799 221.402L390.999 209.837ZM385.226 217.853L399.168 205.492L391.207 196.513L377.265 208.874L385.226 217.853ZM389.187 201.003V219.35H401.187V201.003H389.187ZM398.437 214.306L392.649 210.576L386.149 220.663L391.937 224.393L398.437 214.306ZM364.951 277.785C372.822 271.788 378.773 263.626 382.074 254.298L370.762 250.294C368.24 257.421 363.693 263.658 357.679 268.24L364.951 277.785ZM324.441 275.381C335.201 287.108 353.372 288.053 365.291 277.506L357.339 268.519C350.32 274.73 339.62 274.173 333.283 267.268L324.441 275.381ZM304.836 266.612C311.363 265.818 317.872 268.222 322.318 273.066L331.16 264.953C324.097 257.257 313.756 253.439 303.387 254.7L304.836 266.612Z" fill="#FEFEFE"/>
<path d="M346.614 181.585C346.614 244.891 291.876 296.151 224.29 296.151C156.705 296.151 101.967 244.891 101.967 181.585C101.967 150.974 114.814 123.17 135.624 102.611C151.91 86.4906 173.171 74.8982 197.148 69.8265C205.924 67.9246 214.971 67.0189 224.381 67.0189C243.019 67.0189 260.662 70.9133 276.495 77.8868C300.833 88.6642 320.738 106.687 333.133 128.966C341.729 144.725 346.614 162.566 346.614 181.585Z" fill="#FEFEFE"/>
<path d="M374.775 143.566C374.775 143.566 376.947 127.808 390.247 133.423C396.128 127.355 402.009 129.619 402.009 129.619C402.009 129.619 407.89 130.977 409.337 138.223C425.985 144.743 414.042 156.97 413.228 157.785C417.209 170.283 405.899 171.732 403.366 172.457C398.571 172.638 395.494 173.634 392.78 174.177C390.699 174.63 388.437 174.449 386.447 173.543C376.675 169.377 372.785 160.411 372.604 158.872C371.156 152.713 374.504 148.275 374.504 148.275L374.775 143.566Z" fill="#FEFEFE"/>
<path d="M402.591 142.005C404.517 139.143 404.263 135.599 402.025 134.091C399.787 132.582 396.411 133.68 394.486 136.543C392.56 139.406 392.813 142.949 395.052 144.458C397.29 145.966 400.665 144.868 402.591 142.005Z" fill="#2CA0F6"/>
<path d="M409.528 152.699C412.518 150.981 413.853 147.69 412.51 145.347C411.167 143.005 407.654 142.498 404.663 144.216C401.673 145.934 400.338 149.226 401.681 151.569C403.024 153.911 406.537 154.417 409.528 152.699Z" fill="#2CA0F6"/>
<path d="M389.571 142.851C390.35 139.54 388.812 136.345 386.137 135.714C383.462 135.084 380.662 137.257 379.883 140.567C379.104 143.878 380.642 147.073 383.317 147.704C385.992 148.334 388.792 146.162 389.571 142.851Z" fill="#2CA0F6"/>
<path d="M404.963 166.95C408.281 166.012 410.377 163.145 409.644 160.545C408.91 157.946 405.626 156.599 402.308 157.536C398.99 158.474 396.894 161.341 397.627 163.941C398.361 166.54 401.645 167.887 404.963 166.95Z" fill="#2CA0F6"/>
<path d="M391.061 149.634C394.77 148.819 398.118 152.351 397.123 155.974C396.761 157.242 396.49 158.419 396.218 159.687C395.313 163.672 390.156 165.121 387.442 162.132C386.447 161.045 385.451 159.959 384.366 158.872C381.561 155.974 383.37 150.902 387.351 150.268C388.618 150.087 389.794 149.815 391.061 149.634Z" fill="#2CA0F6"/>
<path d="M295.104 172.677C299.485 144.253 267.888 115.782 224.529 109.085C181.169 102.387 142.468 120 138.086 148.424C133.705 176.848 165.302 205.32 208.661 212.017C252.021 218.714 290.722 201.101 295.104 172.677Z" fill="#2B3959"/>
<path d="M347.841 37.0565C350.238 34.3816 354.709 35.8424 354.811 39.4343C355.397 60.0981 352.039 74.6408 342.225 95.8234C340.905 98.6717 336.892 98.933 335.018 96.4155C331.586 91.8056 326.376 85.5657 320.873 81.7465C316.916 79.0007 312.261 76.5522 308.162 74.6249C304.742 73.0166 304.84 67.6486 308.327 66.1916C324.059 59.6187 334.706 51.7124 347.841 37.0565Z" fill="#66ADEF"/>
<path d="M148.582 15.0252C147.113 11.7471 142.412 11.7696 141.224 15.1607C134.915 33.1604 133.738 47.0609 136.319 68.471C136.694 71.5876 140.438 73.0665 143.002 71.2571C147.406 68.1497 153.715 64.2191 159.608 62.4331C163.735 61.1821 168.35 60.3542 172.433 59.8101C176.18 59.3108 177.737 54.1587 174.879 51.686C163.083 41.4816 155.94 31.4505 148.582 15.0252Z" fill="#66ADEF"/>
<path fill-rule="evenodd" clip-rule="evenodd" d="M221.268 287.556C283.494 288.466 334.666 239.46 335.562 178.097C335.764 164.272 333.397 151 328.896 138.722C335.068 152.538 338.397 167.851 338.162 183.931C337.288 243.773 287.386 291.564 226.702 290.676C207.67 290.398 189.838 285.364 174.352 276.74C188.579 283.451 204.467 287.31 221.268 287.556Z" fill="#B9CBE0"/>
<path d="M166.237 150.616C168.462 150.944 170.53 149.405 170.858 147.179C171.185 144.952 169.647 142.88 167.423 142.552C165.198 142.223 163.13 143.762 162.802 145.989C162.475 148.216 164.013 150.287 166.237 150.616Z" fill="#2CA0F6"/>
<path d="M176.055 152.389C178.279 152.718 180.348 151.179 180.676 148.952C181.004 146.725 179.467 144.654 177.242 144.326C175.017 143.997 172.948 145.537 172.62 147.763C172.293 149.99 173.83 152.061 176.055 152.389Z" fill="#2CA0F6"/>
<path d="M185.499 154.422C187.724 154.75 189.793 153.211 190.121 150.984C190.448 148.758 188.911 146.686 186.686 146.358C184.462 146.03 182.393 147.569 182.065 149.796C181.737 152.023 183.274 154.094 185.499 154.422Z" fill="#2CA0F6"/>
<path d="M195.318 156.164C197.543 156.492 199.612 154.953 199.94 152.726C200.268 150.499 198.73 148.428 196.506 148.1C194.281 147.772 192.212 149.311 191.884 151.537C191.556 153.764 193.094 155.835 195.318 156.164Z" fill="#2CA0F6"/>
<path d="M173.713 161.642C175.938 161.97 178.007 160.431 178.335 158.204C178.663 155.977 177.125 153.906 174.9 153.578C172.676 153.25 170.607 154.789 170.279 157.016C169.951 159.242 171.489 161.314 173.713 161.642Z" fill="#2CA0F6"/>
<path d="M184.111 163.674C186.335 164.002 188.404 162.463 188.732 160.237C189.06 158.01 187.522 155.939 185.298 155.61C183.073 155.282 181.004 156.821 180.676 159.048C180.349 161.275 181.886 163.346 184.111 163.674Z" fill="#2CA0F6"/>
<path d="M238.007 162.795C240.231 163.124 242.3 161.585 242.627 159.358C242.955 157.132 241.417 155.06 239.192 154.731C236.968 154.403 234.899 155.942 234.572 158.168C234.244 160.395 235.782 162.467 238.007 162.795Z" fill="#2CA0F6"/>
<path d="M247.824 164.569C250.049 164.898 252.118 163.358 252.446 161.132C252.774 158.905 251.236 156.834 249.012 156.505C246.787 156.177 244.718 157.716 244.39 159.943C244.062 162.17 245.6 164.241 247.824 164.569Z" fill="#2CA0F6"/>
<path d="M257.268 166.602C259.493 166.93 261.562 165.391 261.89 163.164C262.218 160.937 260.68 158.866 258.456 158.538C256.231 158.21 254.162 159.749 253.834 161.976C253.506 164.202 255.044 166.274 257.268 166.602Z" fill="#2CA0F6"/>
<path d="M267.088 168.343C269.312 168.672 271.382 167.132 271.709 164.906C272.037 162.679 270.5 160.608 268.275 160.28C266.051 159.951 263.981 161.49 263.654 163.717C263.326 165.944 264.863 168.015 267.088 168.343Z" fill="#2CA0F6"/>
<path d="M245.483 173.822C247.707 174.15 249.776 172.611 250.104 170.384C250.432 168.157 248.895 166.086 246.67 165.758C244.445 165.43 242.376 166.969 242.048 169.195C241.721 171.422 243.258 173.493 245.483 173.822Z" fill="#2CA0F6"/>
<path d="M255.88 175.854C258.105 176.182 260.174 174.643 260.502 172.416C260.83 170.19 259.292 168.118 257.067 167.79C254.843 167.462 252.774 169.001 252.446 171.228C252.118 173.455 253.656 175.526 255.88 175.854Z" fill="#2CA0F6"/>
<path d="M35.978 85.3364C38.1755 83.0257 39.8606 83.108 42.7923 84.6828C42.7484 84.7088 42.8356 84.6576 42.7923 84.6828L58.2526 246.211C55.7365 247.977 54.2558 248.249 51.4383 246.864L35.978 85.3364Z" fill="#66ADEF"/>
<path d="M42.7971 84.7193C42.7981 85.7312 41.3698 87.5952 39.4027 87.5932C37.4356 87.5911 35.9897 86.3595 35.9887 85.3476C35.9883 84.9487 37.3731 83.5096 39.3402 83.5116C41.3073 83.5137 42.7969 84.542 42.7971 84.7193Z" fill="#497FB1"/>
<path d="M65.1219 31.5724L56.2304 20.5943C55.7893 20.0495 54.9359 20.1314 54.606 20.7501L47.9586 33.2185C47.5908 33.9081 48.1383 34.73 48.9157 34.6555L52.7625 34.2866L54.1716 49.0085C54.5553 53.0176 51.6093 56.5915 47.6042 56.9756C43.8815 57.3326 40.5361 54.8094 39.7745 51.2325C39.7631 50.9544 39.7447 50.6751 39.7179 50.3946L36.6501 18.343L43.1148 17.723C44.1615 17.6226 44.6753 16.396 44.0131 15.5784L32.0425 0.798433C31.4485 0.0650434 30.2996 0.175232 29.8556 1.00816L20.9061 17.7944C20.4111 18.723 21.1482 19.8296 22.1949 19.7293L28.7325 19.1023L31.8003 51.1541C31.8271 51.4346 31.8621 51.7123 31.9037 51.9875C31.8343 55.6441 29.0283 58.7572 25.3058 59.1142C21.3007 59.4984 17.7303 56.5494 17.3466 52.5403L15.9375 37.8182L19.7843 37.4493C20.5617 37.3747 20.9433 36.4637 20.4514 35.8565L11.5599 24.8784C11.1188 24.3336 10.2654 24.4154 9.93546 25.0342L3.28806 37.5025C2.92027 38.1922 3.4678 39.0141 4.2452 38.9395L8.09202 38.5706L9.5011 53.2925C10.2993 61.6317 17.7264 67.766 26.0572 66.967C27.6768 66.8129 29.2609 66.3981 30.7484 65.7387L34.7414 76.2547C35.9983 80.3528 41.1121 80.314 41.8905 76.2547L43.4514 64.4994C45.0574 64.8763 46.7143 64.9874 48.3562 64.8285C56.6871 64.0295 62.8154 56.5952 62.0172 48.2561L60.6081 33.5342L64.4549 33.1652C65.2323 33.0907 65.6139 32.1797 65.1219 31.5724Z" fill="#66ADEF"/>
<path d="M41.5264 71.3489L40.8311 75.6599C40.7611 76.094 40.5915 76.5059 40.3357 76.8634L40.1835 77.0762C39.7083 77.7405 38.9249 78.1139 38.1096 78.0649V78.0649" stroke="#94C3EF"/>
<path d="M37.5298 203.87C37.5298 203.87 56.0048 207.921 54.5195 190.504C63.4768 186.279 63.0222 178.68 63.0222 178.68C63.0222 178.68 63.5928 171.347 55.9773 166.8C54.6269 145.094 36.6222 153.554 35.4131 154.216C23.4648 163.277 22.5183 196.121 37.5298 203.87Z" fill="#FEFEFE"/>
</svg>
