<svg xmlns="http://www.w3.org/2000/svg" width="454" height="40" fill="none" viewBox="0 0 454 40"><path fill="#2CA0F6" d="M9.99998 12.8335L7.49998 19.5002L0.833313 22.0002L7.49998 24.5002L9.99998 31.1668L12.5 24.5002L19.1666 22.0002L12.5 19.5002L9.99998 12.8335Z"/><path fill="#2CA0F6" d="M429.5 19.875L426.875 26.875L419.875 29.5L426.875 32.125L429.5 39.125L432.125 32.125L439.125 29.5L432.125 26.875L429.5 19.875Z"/><path fill="#2CA0F6" fill-opacity=".8" d="M447 6.5835L445.25 11.2502L440.583 13.0002L445.25 14.7502L447 19.4168L448.75 14.7502L453.417 13.0002L448.75 11.2502L447 6.5835Z"/><path fill="#66ADEF" fill-opacity=".75" d="M241.042 0.458496L239.667 4.12516L236 5.50016L239.667 6.87516L241.042 10.5418L242.417 6.87516L246.083 5.50016L242.417 4.12516L241.042 0.458496Z"/></svg>