<svg width="15" height="18" viewBox="0 0 15 18" fill="none" xmlns="http://www.w3.org/2000/svg">
<path fill-rule="evenodd" clip-rule="evenodd" d="M11.005 3.83643V2.65232C11.49 2.40373 11.744 1.94205 11.744 1.42103C11.744 0.639243 11.09 0 10.2905 0C9.4915 0 8.8375 0.639243 8.8375 1.42054C8.8375 1.94157 9.0675 2.39157 9.552 2.64016V3.83643H5.192V2.64016C5.40926 2.51435 5.58931 2.33592 5.71462 2.12227C5.83992 1.90861 5.9062 1.66702 5.907 1.42103C5.9065 0.639243 5.252 0 4.453 0C3.654 0 3 0.639243 3 1.42054C2.99959 1.67123 3.06784 1.91749 3.19773 2.13399C3.32762 2.35049 3.51445 2.5294 3.739 2.65232V3.83643H11.005Z" fill="white"/>
<path d="M13.1945 4.86486C14.1665 4.86486 14.9535 5.62524 15 6.5194V18L13.1945 16.1222H1.7595C0.787 16.1222 0 15.4061 0 14.4666V6.5194C0 5.62524 0.787 4.86486 1.7595 4.86486H13.1945ZM5.75 8.75676H4.25C3.8375 8.75676 3.5 9.08513 3.5 9.48649V10.9459C3.5 11.3473 3.8375 11.6757 4.25 11.6757H5.75C6.1625 11.6757 6.5 11.3473 6.5 10.9459V9.48649C6.5 9.08513 6.1625 8.75676 5.75 8.75676ZM10.75 8.75676H9.25C8.8375 8.75676 8.5 9.08513 8.5 9.48649V10.9459C8.5 11.3473 8.8375 11.6757 9.25 11.6757H10.75C11.1625 11.6757 11.5 11.3473 11.5 10.9459V9.48649C11.5 9.08513 11.1625 8.75676 10.75 8.75676Z" fill="white"/>
</svg>
